<svg viewBox="0 0 48 48" xmlns="http://www.w3.org/2000/svg" xmlns:xlink="http://www.w3.org/1999/xlink" width="48" height="48">
<defs>



 <path fill="#325d93" id="i-493" d="M24,6c-2.203,0-4,1.795-4,4c0,2.207,1.797,4,4,4c2.208,0,4-1.793,4-4C28,7.795,26.207,6,24,6z M24,12c-1.102,0-2-0.896-2-2 c0-1.102,0.898-2,2-2c1.106,0,2,0.898,2,2C26,11.104,25.105,12,24,12z M20,40h8V17h-8V40z M22,19h4v19h-4V19z M24,1 C11.319,1,1,11.318,1,24c0,12.684,10.319,23,23,23c12.684,0,23-10.316,23-23C47,11.318,36.684,1,24,1z M24,45 C12.421,45,3,35.58,3,24C3,12.422,12.421,3,24,3c11.583,0,21,9.422,21,21C45,35.58,35.582,45,24,45z"/> 
</defs>

<use x="0" y="0" xlink:href="#i-493"/>

</svg>