<svg viewBox="0 0 48 48" xmlns="http://www.w3.org/2000/svg" xmlns:xlink="http://www.w3.org/1999/xlink" width="48" height="48">
<defs>



 <path fill="#325d93" id="i-1392" d="M38,12c2.206,0,4-2.243,4-5s-1.794-5-4-5s-4,2.243-4,5S35.794,12,38,12z M38,4c1.084,0,2,1.374,2,3s-0.916,3-2,3 s-2-1.374-2-3S36.916,4,38,4z M10,12c2.206,0,4-2.243,4-5s-1.794-5-4-5S6,4.243,6,7S7.794,12,10,12z M10,4c1.084,0,2,1.374,2,3 s-0.916,3-2,3S8,8.626,8,7S8.916,4,10,4z M24,12c2.523,0,4.5-2.636,4.5-6S26.523,0,24,0s-4.5,2.636-4.5,6S21.477,12,24,12z M24,2 c1.354,0,2.5,1.832,2.5,4s-1.146,4-2.5,4c-1.355,0-2.5-1.832-2.5-4S22.645,2,24,2z M44.45,13.32c-1.62-0.811-3.22-1.08-3.29-1.09 l-0.08-0.01h-0.09c-0.71,0-1.101,0.489-2.75,2.969c-0.09,0.121-0.181,0.261-0.271,0.4c-0.189-0.279-0.39-0.58-0.56-0.83 c-1.37-2.05-1.7-2.539-2.41-2.539l-0.14,0.01c-0.061,0.01-1.57,0.22-3.311,1.09c-0.138,0.07-0.253,0.152-0.376,0.23 c-0.218-0.16-0.455-0.313-0.727-0.449c-1.7-0.85-3.241-1.076-3.307-1.086l-0.075-0.01H26.99c-0.724,0.008-1.109,0.492-2.755,2.965 c-0.083,0.125-0.174,0.262-0.265,0.397c-0.19-0.278-0.391-0.579-0.556-0.827C22.077,12.538,21.718,12,21,12l-0.116,0.007 c-0.06,0.007-1.507,0.183-3.332,1.095c-0.271,0.136-0.509,0.289-0.727,0.449c-0.124-0.078-0.238-0.16-0.376-0.23 c-1.63-0.811-3.221-1.08-3.29-1.09l-0.08-0.01h-0.09c-0.71,0-1.1,0.489-2.75,2.969c-0.09,0.121-0.18,0.261-0.27,0.4 c-0.19-0.279-0.39-0.58-0.56-0.83c-1.37-2.05-1.7-2.539-2.41-2.539l-0.14,0.01c-0.061,0.01-1.57,0.22-3.311,1.09 c-2.399,1.199-2.54,3.74-2.549,3.9V30h3.06l1,16h9.88l0.938-15h2.18l1,17h9.886l1-17h2.179l0.938,15h9.881l1-16H47V17.17 C46.99,17.061,46.85,14.52,44.45,13.32z M15,16.996V28h-0.94l-1,16H6.94l-1-16H3V17.26c0-0.01,0.1-1.48,1.45-2.15 c0.9-0.449,1.73-0.689,2.22-0.81c0.29,0.4,0.75,1.08,1.08,1.57c1.299,1.94,1.57,2.351,2.25,2.351c0.62,0,0.79-0.261,1.9-1.921 c0.38-0.569,1.02-1.53,1.39-2c0.513,0.128,1.366,0.375,2.223,0.794C15.017,16.061,15,16.932,15,16.996z M31,29h-2.943l-1,17h-6.114 l-1-17H17V17c0-0.014,0.021-1.396,1.447-2.109c0.936-0.469,1.746-0.701,2.222-0.811c0.292,0.389,0.75,1.074,1.08,1.57 c1.296,1.941,1.565,2.346,2.251,2.346c0.623,0,0.793-0.256,1.899-1.917c0.377-0.566,1.019-1.53,1.391-1.997 c0.496,0.114,1.356,0.355,2.263,0.809c1.393,0.696,1.446,2.062,1.447,2.105V29z M45,28h-2.94l-1,16H34.94l-1-16H33V16.992 c0-0.062-0.017-0.933-0.513-1.899c0.885-0.438,1.699-0.675,2.183-0.793c0.29,0.4,0.75,1.08,1.08,1.57 c1.3,1.94,1.57,2.351,2.25,2.351c0.62,0,0.79-0.261,1.9-1.921c0.38-0.569,1.02-1.521,1.39-2c0.52,0.13,1.39,0.38,2.26,0.81 c1.34,0.67,1.45,2.101,1.45,2.111V28z"/> 
</defs>

<use x="0" y="0" xlink:href="#i-1392"/>

</svg>