<svg viewBox="0 0 48 48" xmlns="http://www.w3.org/2000/svg" xmlns:xlink="http://www.w3.org/1999/xlink" width="48" height="48">
<defs>



 <path fill="#325d93" id="i-1863" d="M9,31c1.654,0,3-1.346,3-3c0-0.568-0.167-1.094-0.442-1.547l5.433-6.641C17.308,19.927,17.644,20,18,20 c0.722,0,1.375-0.267,1.894-0.692l4.16,4.16C24.022,23.641,24,23.817,24,24c0,1.654,1.346,3,3,3s3-1.346,3-3 c0-0.543-0.156-1.046-0.409-1.485l8.333-9.723C38.259,12.922,38.62,13,39,13c1.654,0,3-1.346,3-3s-1.346-3-3-3s-3,1.346-3,3 c0,0.543,0.156,1.046,0.41,1.485l-8.333,9.723C27.741,21.078,27.381,21,27,21c-0.722,0-1.375,0.267-1.894,0.692l-4.16-4.16 C20.978,17.359,21,17.183,21,17c0-1.654-1.346-3-3-3s-3,1.346-3,3c0,0.568,0.167,1.094,0.443,1.547l-5.434,6.641 C9.693,25.073,9.355,25,9,25c-1.654,0-3,1.346-3,3S7.346,31,9,31z M39,9c0.552,0,1,0.448,1,1s-0.448,1-1,1c-0.551,0-1-0.448-1-1 S38.449,9,39,9z M27,23c0.552,0,1,0.448,1,1s-0.448,1-1,1c-0.551,0-1-0.448-1-1S26.449,23,27,23z M18,16c0.552,0,1,0.448,1,1 s-0.448,1-1,1c-0.551,0-1-0.448-1-1S17.449,16,18,16z M9,27c0.552,0,1,0.448,1,1s-0.448,1-1,1c-0.551,0-1-0.448-1-1S8.449,27,9,27z M0,0v2h2v33h21v3.465l-8.438,5.625C14.383,44.037,14.196,44,14,44c-1.103,0-2,0.897-2,2s0.897,2,2,2s2-0.897,2-2 c0-0.148-0.02-0.292-0.05-0.432l7.05-4.7v3.41c-0.595,0.347-1,0.985-1,1.722c0,1.103,0.897,2,2,2s2-0.897,2-2 c0-0.736-0.405-1.375-1-1.722v-3.513l8.043,4.826C33.016,45.724,33,45.86,33,46c0,1.103,0.897,2,2,2s2-0.897,2-2s-0.897-2-2-2 c-0.198,0-0.387,0.038-0.568,0.093L25,38.435V35h21V2h2V0H0z M44,33H4V2h40V33z"/> 
</defs>

<use x="0" y="0" xlink:href="#i-1863"/>

</svg>