<svg viewBox="0 0 48 48" xmlns="http://www.w3.org/2000/svg" xmlns:xlink="http://www.w3.org/1999/xlink" width="48" height="48">
<defs>



 <path fill="#325d93" id="i-1592" d="M6.076,22.017c9.064,0,16.025,2.938,16.318,3.064l-0.787,1.838c-0.068-0.028-6.896-2.902-15.533-2.902 c-0.024,0-0.047,0-0.072,0l-0.004-2C6.024,22.017,6.05,22.017,6.076,22.017z M48,9.905V40v1.868V42H0v-2h0.002L0,10.007h2v28.325 c1.767-0.815,4.978-1.934,9.336-2.006c-1.528-0.258-3.146-0.419-4.829-0.419c-0.811,0-1.624,0.036-2.417,0.108L3,36.114V6.119 l0.891-0.098c0.705-0.077,1.447-0.117,2.207-0.117c7.677,0,15.848,3.912,17.903,4.962c2.055-1.05,10.227-4.962,17.902-4.962 c0.76,0,1.502,0.04,2.207,0.117L45,6.119v29.995l-1.09-0.099c-0.793-0.072-1.607-0.108-2.418-0.108c-1.68,0-3.295,0.161-4.822,0.418 c4.355,0.074,7.564,1.191,9.33,2.007V9.905H48z M21.227,40c-8.703-3.002-15.13-1.211-18.005,0H21.227z M23,12.605 c-2.045-1.028-9.845-4.701-16.903-4.701C5.725,7.904,5.358,7.915,5,7.936v26.011c0.5-0.026,1.004-0.039,1.507-0.039 c7.508,0,13.717,2.835,16.493,4.345V12.605z M25,38.252c2.775-1.51,8.984-4.345,16.492-4.345c0.504,0,1.008,0.013,1.508,0.039V7.936 c-0.357-0.021-0.725-0.031-1.098-0.031c-7.057,0-14.857,3.673-16.902,4.701V38.252z M44.779,40c-2.873-1.21-9.303-3.002-18.006,0 H44.779z M6,29c10.527,0,15.44,2.831,15.488,2.859l1.026-1.717C22.301,30.015,17.149,27,6,27V29z M41.801,14.051 c0.064,0,0.129,0.001,0.193,0.001l0.012-2c-8.1-0.012-15.111,2.955-15.406,3.084L27.4,16.97 C27.467,16.94,34.199,14.051,41.801,14.051z M41.996,19.034l0.008-2c-8.162-0.037-15.107,2.957-15.402,3.084l0.797,1.834 C27.467,21.923,34.295,18.963,41.996,19.034z M41.936,24.017c0.02,0,0.041,0,0.062,0l0.004-2c-0.023,0-0.045,0-0.068,0 c-8.084,0-15.037,2.956-15.33,3.083l0.793,1.836C27.465,26.906,34.256,24.017,41.936,24.017z M42,27 c-8.111,0-15.1,2.955-15.395,3.081l0.789,1.838C27.463,31.89,34.295,29,42,29V27z M6,12h1c8.138,0,14.187,2.918,14.44,3.042 L22,15.316v7.121l-1.348-0.5C20.574,21.908,12.747,19.03,7,19.03H6V12z M8,17.055c4.476,0.211,9.608,1.746,12,2.54V16.59 c-1.552-0.655-6.177-2.39-12-2.574V17.055z"/> 
</defs>

<use x="0" y="0" xlink:href="#i-1592"/>

</svg>