<svg viewBox="0 0 48 48" xmlns="http://www.w3.org/2000/svg" xmlns:xlink="http://www.w3.org/1999/xlink" width="48" height="48">
<defs>



 <path fill="#325d93" id="i-1208" d="M43.316,8.051C40.314,7.051,26.699,7,24,7C21.302,7,7.686,7.051,4.684,8.051C0.767,9.357,0,14.529,0,23.021v1.957 c0,8.492,0.767,13.664,4.684,14.971C7.686,40.949,21.302,41,24,41c2.699,0,16.314-0.051,19.316-1.051 C47.233,38.643,48,33.471,48,24.979v-1.957C48,14.529,47.233,9.357,43.316,8.051z M46,24.979c0,8.611-0.93,12.277-3.316,13.072 C40.981,38.619,33.473,39,24,39S7.019,38.619,5.316,38.051C2.93,37.256,2,33.59,2,24.979v-1.957c0-8.612,0.93-12.277,3.316-13.072 C7.019,9.381,14.527,9,24,9s16.981,0.381,18.684,0.949C45.07,10.744,46,14.409,46,23.021V24.979z M18.954,30.608l13.13-6.477 l-13.13-7.901V30.608z M20.954,19.77l6.962,4.188l-6.962,3.434V19.77z"/> 
</defs>

<use x="0" y="0" xlink:href="#i-1208"/>

</svg>