<?xml version="1.0" encoding="UTF-8" standalone="no"?>
<svg width="317px" height="150px" viewBox="0 0 317 150" version="1.1" xmlns="http://www.w3.org/2000/svg" xmlns:xlink="http://www.w3.org/1999/xlink" xmlns:sketch="http://www.bohemiancoding.com/sketch/ns">
    <!-- Generator: Sketch 3.3.3 (12072) - http://www.bohemiancoding.com/sketch -->
    <title>Untitled 5</title>
    <desc>Created with Sketch.</desc>
    <defs></defs>
    <g id="Page-1" stroke="none" stroke-width="1" fill="none" fill-rule="evenodd" sketch:type="MSPage">
        <text id="geist" sketch:type="MSTextLayer" font-family="Avenir" font-size="144" font-weight="260" sketch:alignment="middle" fill="#D4D6D9">
            <tspan x="2.548" y="111">geist</tspan>
        </text>
        <g id="noun_193957_cc-+-Oval-1-Copy-2-+-Oval-1-Copy-3" sketch:type="MSLayerGroup" transform="translate(45.500000, 77.000000) scale(-1, 1) translate(-45.500000, -77.000000) translate(27.000000, 54.000000)">
            <g id="noun_193957_cc" fill="#D4D6D9" sketch:type="MSShapeGroup">
                <g id="Group">
                    <path d="M18.5,0.239583333 C8.87051282,0.239583333 0.996153846,7.81041667 0.379487179,17.3458333 L0.332051282,17.3458333 L0.332051282,18.1125 L0.332051282,43.7479167 C0.332051282,43.7479167 1.37564103,46.7666667 4.50641026,42.98125 C7.68461538,39.1958333 9.96153846,43.7479167 9.96153846,43.7479167 C9.96153846,43.7479167 12.4282051,48.3 15.4166667,43.7479167 C18.4051282,39.1958333 21.3461538,43.7479167 21.3461538,43.7479167 C21.3461538,43.7479167 24.0974359,47.6291667 26.6115385,43.7479167 C29.125641,39.8666667 31.6397436,42.98125 31.6397436,42.98125 C31.6397436,42.98125 36.4782051,48.2520833 36.4782051,42.98125 C36.4782051,39.0520833 36.6679487,19.5020833 36.6679487,18.5916667 C36.6679487,8.48125 28.5564103,0.239583333 18.5,0.239583333 Z M27.1807692,28.7020833 C27.1807692,28.7020833 24.9512817,29.8846863 22.6269227,29.8846863 C20.3025637,29.8846863 18.0730769,28.75 18.0730769,28.75 C16.3653846,28.0791667 15.3217949,27.16875 14.8,26.5458333 C14.5628205,26.30625 14.7525641,25.875 15.0846154,25.875 L30.1692308,25.875 C30.5012821,25.875 30.6910256,26.2583333 30.4538462,26.4979167 C29.9320513,27.1208333 28.8884615,28.03125 27.1807692,28.7020833 Z M34.2101817,16.0207851 C34.131187,15.9827807 32.2405801,15.09375 28.838541,15.09375 C26.954517,15.09375 25.9315354,15.3964276 25.029679,15.6665301 C24.2858121,15.8877698 23.6420052,16.0777916 22.6269231,16.0777916 C21.6105244,16.0777916 20.968034,15.8877698 20.2241671,15.6665301 C19.3223108,15.3964276 18.2993292,15.09375 16.4153052,15.09375 C13.0132661,15.09375 11.1226592,15.9827807 11.0436645,16.0207851 C10.9422879,16.0682905 10.8751424,16.1700879 10.8672429,16.2854584 L10.7684996,17.8069903 C10.7606001,17.9413629 10.8382782,18.068949 10.9620366,18.1205263 C11.0923779,18.173461 11.2424678,18.277973 11.2635331,18.3227638 C11.2806486,18.3770558 11.3122465,18.5453608 11.3609599,18.7856027 C11.5149996,19.5606203 11.8006972,21.0047862 12.1509071,21.9657538 C12.5550967,23.0773815 12.9856179,23.5551507 13.9888508,24.0057739 C14.5878941,24.2758763 15.5121323,24.4428241 16.403456,24.4428241 C17.2737145,24.4428241 18.0847269,24.2853774 18.7469659,23.988129 C20.4730005,23.2117541 20.8864062,22.0336187 21.411721,20.5433047 C21.4880826,20.3220649 21.5552281,20.122542 21.6144741,19.9433786 C21.980483,18.8480385 22.0489451,18.7068794 22.6269231,18.7068794 C23.2049011,18.7068794 23.2746798,18.8480385 23.639372,19.9433786 C23.6999346,20.1238993 23.7657636,20.3220649 23.8434417,20.5419474 C24.3661234,22.0336187 24.7782125,23.2117541 26.5055637,23.988129 C27.1691193,24.2853774 27.9801317,24.4428241 28.8503901,24.4428241 C29.7403973,24.4428241 30.6659521,24.2758763 31.2663119,24.0057739 C32.2682282,23.5551507 32.6974329,23.0773815 33.1029391,21.9657538 C33.4505158,21.0102154 33.7362134,19.5701214 33.8902531,18.7978184 C33.9402831,18.5521473 33.9731975,18.3797704 33.9876799,18.3295503 C34.0126949,18.277973 34.1627848,18.173461 34.2918095,18.1205263 C34.4155679,18.068949 34.4932461,17.9413629 34.4853466,17.8069903 L34.3866032,16.2854584 C34.3787037,16.1700879 34.3102417,16.0682905 34.2101817,16.0207851 Z" id="Shape"></path>
                </g>
            </g>
            <ellipse id="Oval-1-Copy-3" fill="#DCDDDF" sketch:type="MSShapeGroup" cx="17.0769231" cy="20.6041667" rx="2.37179487" ry="2.39583333"></ellipse>
            <path d="M29.4102564,23 C30.7201625,23 31.7820513,21.9273489 31.7820513,20.6041667 C31.7820513,19.2809845 30.7201625,18.2083333 29.4102564,18.2083333 C28.1003503,18.2083333 27.0384615,19.2809845 27.0384615,20.6041667 C27.0384615,21.9273489 28.1003503,23 29.4102564,23 Z" id="Oval-1-Copy-4" fill="#DCDDDF" sketch:type="MSShapeGroup"></path>
        </g>
    </g>
</svg>