<svg viewBox="0 0 48 48" xmlns="http://www.w3.org/2000/svg" xmlns:xlink="http://www.w3.org/1999/xlink" width="48" height="48">
<defs>



 <path fill="#325d93" id="i-2408" d="M19,16.884v1.158l-8-1.178V16c0-0.754,0.425-1.395,1.168-1.759c0.502-0.246,1.139-0.371,1.896-0.371 C16.053,13.871,19,14.828,19,16.884z M46,24c0,12.131-9.869,22-22,22C11.867,46,2,36.131,2,24S11.867,2,24,2 C36.131,2,46,11.869,46,24z M10.814,9h26.37C33.659,5.898,29.053,4,24,4C18.946,4,14.34,5.898,10.814,9z M4.25,21h39.5 c-0.573-3.784-2.197-7.221-4.582-10H8.831C6.446,13.779,4.823,17.216,4.25,21z M44,24c0-0.337-0.035-0.667-0.051-1H4.051 C4.034,23.333,4,23.663,4,24c0,11.028,8.973,20,20,20S44,35.028,44,24z M33.936,13.871c-1.99,0-4.936,0.958-4.936,3.013v1.158 l8-1.179V16C37,14.971,36.194,13.871,33.936,13.871z M15.446,35.895C15.525,35.855,23.348,32,33,32v-2 c-10.12,0-18.111,3.938-18.447,4.105L15.446,35.895z"/> 
</defs>

<use x="0" y="0" xlink:href="#i-2408"/>

</svg>