<svg viewBox="0 0 48 48" xmlns="http://www.w3.org/2000/svg" xmlns:xlink="http://www.w3.org/1999/xlink" width="48" height="48">
<defs>



 <path fill="#325d93" id="i-2362" d="M17,20c1.654,0,3-1.346,3-3s-1.346-3-3-3s-3,1.346-3,3S15.346,20,17,20z M17,16c0.552,0,1,0.449,1,1s-0.448,1-1,1 c-0.553,0-1-0.449-1-1S16.447,16,17,16z M38.026,33.134l-1.685-2.919C36.753,29.249,37,28.183,37,27h-2c0,5.22-6.389,8-11,8 c-5.3,0-11-2.504-11-8h-2c0,6.871,6.739,10,13,10c0.725,0,1.499-0.066,2.292-0.189l1.341,2.322c0.575,0.996,1.734,1.582,3.18,1.605 c0.031,0.001,0.063,0.001,0.096,0.001c1.255,0,2.644-0.403,3.922-1.142C37.743,37.916,39.147,35.077,38.026,33.134z M33.83,37.865 c-0.965,0.558-2.026,0.874-2.922,0.874c-0.021,0-0.042,0-0.062-0.001c-0.726-0.012-1.265-0.232-1.479-0.604l-1.021-1.769 c0.964-0.273,1.921-0.639,2.833-1.093l1.22,2.112l1.732-1L32.9,34.254c0.855-0.594,1.627-1.283,2.264-2.078l1.13,1.957 C36.766,34.951,35.812,36.721,33.83,37.865z M31,20c1.654,0,3-1.346,3-3s-1.346-3-3-3s-3,1.346-3,3S29.346,20,31,20z M31,16 c0.552,0,1,0.449,1,1s-0.448,1-1,1c-0.553,0-1-0.449-1-1S30.447,16,31,16z M24,2C11.868,2,2,11.869,2,24s9.868,22,22,22 c12.131,0,22-9.869,22-22S36.131,2,24,2z M24,44C12.972,44,4,35.027,4,24C4,12.972,12.972,4,24,4s20,8.972,20,20 C44,35.027,35.028,44,24,44z"/> 
</defs>

<use x="0" y="0" xlink:href="#i-2362"/>

</svg>