<svg viewBox="0 0 48 48" xmlns="http://www.w3.org/2000/svg" xmlns:xlink="http://www.w3.org/1999/xlink" width="48" height="48">
<defs>



 <path fill="#325d93" id="i-2407" d="M15,16c-1.654,0-3,1.346-3,3s1.346,3,3,3s3-1.346,3-3S16.654,16,15,16z M15,20c-0.551,0-1-0.449-1-1s0.449-1,1-1 s1,0.449,1,1S15.551,20,15,20z M29,16c-1.654,0-3,1.346-3,3s1.346,3,3,3s3-1.346,3-3S30.654,16,29,16z M29,20c-0.552,0-1-0.449-1-1 s0.448-1,1-1s1,0.449,1,1S29.552,20,29,20z M12,12c-3.541,0-7,4.429-7,7s3.459,7,7,7h20c3.541,0,7-4.429,7-7s-3.459-7-7-7H12z M37,19c0,1.49-2.615,5-5,5H12c-2.385,0-5-3.51-5-5s2.615-5,5-5h20C34.385,14,37,17.51,37,19z M40.477,13.673 c3.146,0,5.898-5.187,6.418-6.226l0.85-1.699L45.862,6.01c-0.859,0.119-2.681,0.421-4.426,1c1.047-2.056,1.476-4.396,1.55-4.847 l0.311-1.878l-1.723,0.811c-1.772,0.834-7.436,3.71-7.695,6.402C30.449,5.288,26.374,4,22,4C9.869,4,0,13.869,0,26s9.869,22,22,22 s22-9.869,22-22c0-4.578-1.406-8.832-3.809-12.357C40.286,13.653,40.379,13.673,40.477,13.673 C40.477,13.673,40.477,13.673,40.477,13.673z M40.477,11.673c-0.167,0-0.429-0.04-0.77-0.38c-0.152-0.153-0.499-0.533-0.419-0.772 c0.257-0.765,2.398-1.607,4.764-2.146C42.944,10.069,41.519,11.673,40.477,11.673z M40.52,3.884 c-0.606,1.997-1.705,4.406-3.255,4.406c-0.265,0-0.554-0.069-0.859-0.204c-0.416-0.185-0.552-0.349-0.552-0.4 C35.845,6.975,37.902,5.343,40.52,3.884z M22,46C10.972,46,2,37.028,2,26C2,14.972,10.972,6,22,6c11.028,0,20,8.972,20,20 C42,37.028,33.028,46,22,46z"/> 
</defs>

<use x="0" y="0" xlink:href="#i-2407"/>

</svg>