<svg viewBox="0 0 48 48" xmlns="http://www.w3.org/2000/svg" xmlns:xlink="http://www.w3.org/1999/xlink" width="48" height="48">
<defs>



 <path fill="#325d93" id="i-2372" d="M31,20c1.65,0,3-1.35,3-3s-1.35-3-3-3s-3,1.35-3,3S29.35,20,31,20z M31,16c0.55,0,1,0.45,1,1s-0.45,1-1,1s-1-0.45-1-1 S30.45,16,31,16z M24,2C11.87,2,2,11.87,2,24s9.87,22,22,22s22-9.87,22-22S36.13,2,24,2z M4,24C4,12.97,12.97,4,24,4 c1.65,0,3.24,0.22,4.77,0.6L20.137,12H13c-2.966,0-3,1.918-3,2v5c0,0.428,0.107,0.93,0.336,1.399L4.09,25.75 C4.04,25.17,4,24.59,4,24z M23,14c-0.054,1.384-2.09,6-3,6h-7c-0.806,0-0.988-0.55-1-1v-4.824C12.096,14.118,12.368,14,13,14H23z M24,44c-9.62,0-17.68-6.83-19.58-15.91l7.373-6.323C12.141,21.906,12.532,22,13,22h7c2.976,0,5-7.004,5-8 c0-1.787-1.197-1.977-1.807-1.997L31.02,5.3C38.59,8.15,44,15.45,44,24C44,35.03,35.03,44,24,44z M34,25h2c0,6.62-5.38,12-12,12 s-12-5.38-12-12h2c0,5.51,4.49,10,10,10S34,30.51,34,25z"/> 
</defs>

<use x="0" y="0" xlink:href="#i-2372"/>

</svg>