<svg viewBox="0 0 48 48" xmlns="http://www.w3.org/2000/svg" xmlns:xlink="http://www.w3.org/1999/xlink" width="48" height="48">
<defs>



 <path fill="#325d93" id="i-2337" d="M31,20c1.654,0,3-1.346,3-3s-1.346-3-3-3s-3,1.346-3,3S29.346,20,31,20z M31,16c0.552,0,1,0.449,1,1s-0.448,1-1,1 s-1-0.449-1-1S30.448,16,31,16z M24,2C11.869,2,2,11.869,2,24s9.869,22,22,22s22-9.869,22-22S36.131,2,24,2z M24,44 C12.972,44,4,35.027,4,24C4,12.972,12.972,4,24,4s20,8.972,20,20C44,35.027,35.028,44,24,44z M32.909,29.545l1.781,0.91 C32.627,34.492,28.531,37,24,37s-8.627-2.508-10.69-6.545l1.781-0.91C16.811,32.91,20.224,35,24,35S31.189,32.91,32.909,29.545z M17,20c1.654,0,3-1.346,3-3s-1.346-3-3-3s-3,1.346-3,3S15.346,20,17,20z M17,16c0.552,0,1,0.449,1,1s-0.448,1-1,1s-1-0.449-1-1 S16.448,16,17,16z"/> 
</defs>

<use x="0" y="0" xlink:href="#i-2337"/>

</svg>