<svg viewBox="0 0 48 48" xmlns="http://www.w3.org/2000/svg" xmlns:xlink="http://www.w3.org/1999/xlink" width="48" height="48">
<defs>



 <path fill="#325d93" id="i-2359" d="M24,2C11.869,2,2,11.869,2,24s9.869,22,22,22s22-9.869,22-22S36.131,2,24,2z M24,4c6.074,0,11.514,2.73,15.184,7.018 c-4.039-0.981-11.291,0.392-13.209,0.941c-1.027-0.217-2.922-0.217-3.949,0c-1.917-0.551-9.166-1.925-13.209-0.941 C12.486,6.73,17.926,4,24,4z M37.296,19.225c-0.893,0.79-7.366,1.227-8.589,0.003c-1.751-1.753-1.782-3.86-1.731-5.477 c2.092-0.534,7.696-1.446,11.062-0.925C38.136,15.814,37.812,18.701,37.296,19.225z M19.293,19.229 c-1.223,1.223-7.696,0.788-8.581,0.005c-0.526-0.535-0.846-3.373-0.747-6.407c3.36-0.523,8.967,0.39,11.059,0.924 C21.074,15.368,21.044,17.476,19.293,19.229z M24,44C12.972,44,4,35.027,4,24c0-4.48,1.498-8.606,3.996-11.944 c-0.093,1.754-0.232,7.034,1.297,8.587c0.812,0.81,3.471,1.359,6.075,1.359c2.207,0,4.374-0.395,5.339-1.36 c2.279-2.281,2.368-5,2.32-6.81c0.579-0.044,1.366-0.044,1.945,0c-0.049,1.811,0.041,4.528,2.32,6.81 c1.289,1.288,4.261,1.396,5.931,1.348c0.712-0.021,4.322-0.187,5.489-1.354c1.536-1.562,1.387-6.827,1.291-8.581 C42.502,15.394,44,19.521,44,24C44,35.027,35.028,44,24,44z M32.909,29.545l1.781,0.91C32.627,34.492,28.531,37,24,37 s-8.627-2.508-10.69-6.545l1.781-0.91C16.811,32.91,20.224,35,24,35S31.189,32.91,32.909,29.545z"/> 
</defs>

<use x="0" y="0" xlink:href="#i-2359"/>

</svg>